# Blender 4.5.3 LTS
# www.blender.org
mtllib Chair02.mtl
o Chair
v -0.900000 1.832248 6.000000
v -0.900000 2.000000 6.000000
v -1.000000 1.832248 4.000000
v -1.000000 2.000000 4.000000
v 0.900000 1.832248 6.000000
v 0.900000 2.000000 6.000000
v 1.000000 1.832248 4.000000
v 1.000000 2.000000 4.000000
v -1.000000 1.832248 4.120000
v -1.000000 1.832248 4.392000
v -0.900000 1.832248 5.608000
v -0.900000 1.832248 5.880000
v 0.880000 1.832248 4.000000
v 0.608000 1.832248 4.000000
v -0.608000 1.832248 4.000000
v -0.880000 1.832248 4.000000
v 0.900000 1.832248 5.880000
v 0.900000 1.832248 5.608000
v 1.000000 1.832248 4.392000
v 1.000000 1.832248 4.120000
v -0.780000 1.832248 6.000000
v -0.508000 1.832248 6.000000
v 0.508000 1.832248 6.000000
v 0.780000 1.832248 6.000000
v -0.880000 1.832248 4.120000
v -0.880000 1.832248 4.392000
v -0.780000 1.832248 5.608000
v -0.780000 1.832248 5.880000
v -0.608000 1.832248 4.120000
v -0.608000 1.832248 4.392000
v -0.508000 1.832248 5.608000
v -0.508000 1.832248 5.880000
v 0.608000 1.832248 4.120000
v 0.608000 1.832248 4.392000
v 0.508000 1.832248 5.608000
v 0.508000 1.832248 5.880000
v 0.880000 1.832248 4.120000
v 0.880000 1.832248 4.392000
v 0.780000 1.832248 5.608000
v 0.780000 1.832248 5.880000
v -0.880000 0.000017 4.120000
v -0.880000 0.000017 4.392000
v -0.780000 0.000017 5.808000
v -0.780000 0.000017 6.080000
v -0.608000 0.000017 4.120000
v -0.608000 0.000017 4.392000
v -0.508000 0.000017 5.808000
v -0.508000 0.000017 6.080000
v 0.608000 0.000017 4.120000
v 0.608000 0.000017 4.392000
v 0.508000 0.000017 5.808000
v 0.508000 0.000017 6.080000
v 0.880000 0.000017 4.120000
v 0.880000 0.000017 4.392000
v 0.780000 0.000017 5.808000
v 0.780000 0.000017 6.080000
v -0.900000 2.000000 5.880000
v -0.900000 2.000000 5.676000
v 0.900000 2.000000 5.676000
v 0.900000 2.000000 5.880000
v 0.600000 2.000000 5.676000
v 0.600000 2.000000 5.880000
v 0.200000 2.000000 5.676000
v 0.200000 2.000000 5.880000
v -0.200000 2.000000 5.676000
v -0.200000 2.000000 5.880000
v -0.600000 2.000000 5.676000
v -0.600000 2.000000 5.880000
v 0.600000 2.655567 5.665431
v 0.600000 2.655567 5.869431
v 0.200000 2.655567 5.665431
v 0.200000 2.655567 5.869431
v -0.200000 2.655567 5.665431
v -0.200000 2.655567 5.869431
v -0.600000 2.655567 5.665431
v -0.600000 2.655567 5.869431
v 0.824185 2.655567 5.665431
v 0.824185 2.655567 5.869431
v 0.200000 2.655567 5.665431
v 0.200000 2.655567 5.869431
v -0.200000 2.655567 5.665431
v -0.200000 2.655567 5.869431
v -0.824185 2.655567 5.665431
v -0.824185 2.655567 5.869431
v 0.824185 4.138192 6.154602
v 0.824185 4.077538 6.299605
v -0.824185 4.138192 6.154602
v -0.824185 4.077538 6.299605
vn -0.9976 0.0482 0.0499
vn -0.0000 -0.0000 -1.0000
vn 0.9976 0.0482 0.0499
vn -0.0000 -0.0000 1.0000
vn -0.0000 -1.0000 -0.0000
vn 1.0000 -0.0000 -0.0000
vn -1.0000 -0.0000 -0.0000
vn -0.0000 -0.1085 -0.9941
vn -0.0000 0.1085 0.9941
vn -0.0000 1.0000 -0.0000
vn -0.0000 -0.0161 -0.9999
vn -0.0000 0.0161 0.9999
vn -0.0000 0.3133 -0.9496
vn -0.0000 -0.9225 -0.3859
vn -0.0000 -0.2896 0.9572
vt 0.375000 0.000000
vt 0.625000 0.000000
vt 0.625000 0.015000
vt 0.625000 0.040500
vt 0.625000 0.250000
vt 0.375000 0.250000
vt 0.375000 0.235000
vt 0.375000 0.201000
vt 0.375000 0.049000
vt 0.375000 0.015000
vt 0.625000 0.500000
vt 0.375000 0.500000
vt 0.375000 0.485000
vt 0.375000 0.451000
vt 0.375000 0.299000
vt 0.375000 0.265000
vt 0.625000 0.709500
vt 0.625000 0.735000
vt 0.625000 0.750000
vt 0.375000 0.750000
vt 0.375000 0.735000
vt 0.375000 0.701000
vt 0.375000 0.549000
vt 0.375000 0.515000
vt 0.625000 1.000000
vt 0.375000 1.000000
vt 0.375000 0.985000
vt 0.375000 0.951000
vt 0.375000 0.799000
vt 0.375000 0.765000
vt 0.360000 0.735000
vt 0.360000 0.750000
vt 0.125000 0.735000
vt 0.140000 0.735000
vt 0.140000 0.750000
vt 0.125000 0.750000
vt 0.174000 0.735000
vt 0.174000 0.750000
vt 0.326000 0.735000
vt 0.326000 0.750000
vt 0.125000 0.500000
vt 0.140000 0.500000
vt 0.140000 0.515000
vt 0.125000 0.515000
vt 0.140000 0.549000
vt 0.125000 0.549000
vt 0.140000 0.701000
vt 0.125000 0.701000
vt 0.174000 0.500000
vt 0.174000 0.515000
vt 0.174000 0.549000
vt 0.174000 0.701000
vt 0.326000 0.500000
vt 0.326000 0.515000
vt 0.326000 0.549000
vt 0.326000 0.701000
vt 0.360000 0.500000
vt 0.360000 0.515000
vt 0.360000 0.549000
vt 0.360000 0.701000
vt 0.675000 0.735000
vt 0.725000 0.735000
vt 0.775000 0.735000
vt 0.825000 0.735000
vt 0.875000 0.735000
vt 0.875000 0.750000
vt 0.675000 0.709500
vt 0.725000 0.709500
vt 0.775000 0.709500
vt 0.875000 0.500000
vt 0.875000 0.709500
vt 0.825000 0.709500
vt 0.000000 0.000000
s 0
f 1/1/1 2/2/1 57/3/1 58/4/1 4/5/1 3/6/1 9/7/1 10/8/1 11/9/1 12/10/1
f 3/6/2 4/5/2 8/11/2 7/12/2 13/13/2 14/14/2 15/15/2 16/16/2
f 7/12/3 8/11/3 59/17/3 60/18/3 6/19/3 5/20/3 17/21/3 18/22/3 19/23/3 20/24/3
f 5/20/4 6/19/4 2/25/4 1/26/4 21/27/4 22/28/4 23/29/4 24/30/4
f 40/31/5 17/21/5 5/20/5 24/32/5
f 12/33/5 28/34/5 21/35/5 1/36/5
f 28/34/5 32/37/5 22/38/5 21/35/5
f 32/37/5 36/39/5 23/40/5 22/38/5
f 36/39/5 40/31/5 24/32/5 23/40/5
f 3/41/5 16/42/5 25/43/5 9/44/5
f 9/44/5 25/43/5 26/45/5 10/46/5
f 10/46/5 26/45/5 27/47/5 11/48/5
f 11/48/5 27/47/5 28/34/5 12/33/5
f 16/42/5 15/49/5 29/50/5 25/43/5
f 25/43/2 29/50/2 45/50/2 41/43/2
f 26/45/5 30/51/5 31/52/5 27/47/5
f 31/52/6 32/37/6 48/37/6 47/52/6
f 15/49/5 14/53/5 33/54/5 29/50/5
f 29/50/5 33/54/5 34/55/5 30/51/5
f 30/51/5 34/55/5 35/56/5 31/52/5
f 31/52/5 35/56/5 36/39/5 32/37/5
f 14/53/5 13/57/5 37/58/5 33/54/5
f 29/50/6 30/51/6 46/51/6 45/50/6
f 34/55/5 38/59/5 39/60/5 35/56/5
f 36/39/7 35/56/7 51/56/7 52/39/7
f 13/57/5 7/12/5 20/24/5 37/58/5
f 37/58/5 20/24/5 19/23/5 38/59/5
f 38/59/5 19/23/5 18/22/5 39/60/5
f 39/60/5 18/22/5 17/21/5 40/31/5
f 41/43/5 45/50/5 46/51/5 42/45/5
f 43/47/5 47/52/5 48/37/5 44/34/5
f 49/54/5 53/58/5 54/59/5 50/55/5
f 51/56/5 55/60/5 56/31/5 52/39/5
f 26/45/7 25/43/7 41/43/7 42/45/7
f 37/58/6 38/59/6 54/59/6 53/58/6
f 33/54/2 37/58/2 53/58/2 49/54/2
f 30/51/4 26/45/4 42/45/4 46/51/4
f 38/59/4 34/55/4 50/55/4 54/59/4
f 27/47/8 31/52/8 47/52/8 43/47/8
f 28/34/7 27/47/7 43/47/7 44/34/7
f 39/60/6 40/31/6 56/31/6 55/60/6
f 35/56/8 39/60/8 55/60/8 51/56/8
f 34/55/7 33/54/7 49/54/7 50/55/7
f 32/37/9 28/34/9 44/34/9 48/37/9
f 40/31/9 36/39/9 52/39/9 56/31/9
f 62/61/10 64/62/10 66/63/10 68/64/10 57/65/10 2/66/10 6/19/10 60/18/10
f 59/17/10 61/67/10 62/61/10 60/18/10
f 63/68/7 64/62/7 72/62/7 71/68/7
f 63/68/10 65/69/10 66/63/10 64/62/10
f 63/68/10 61/67/10 59/17/10 8/11/10 4/70/10 58/71/10 67/72/10 65/69/10
f 67/72/7 68/64/7 76/64/7 75/72/7
f 67/72/10 58/71/10 57/65/10 68/64/10
f 72/73/10 74/73/10 82/73/10 80/73/10
f 76/64/10 74/63/10 82/63/10 84/64/10
f 65/69/11 67/72/11 75/72/11 73/69/11
f 61/67/11 63/68/11 71/68/11 69/67/11
f 66/63/6 65/69/6 73/69/6 74/63/6
f 68/64/12 66/63/12 74/63/12 76/64/12
f 62/61/6 61/67/6 69/67/6 70/61/6
f 64/62/12 62/61/12 70/61/12 72/62/12
f 70/61/5 69/67/5 77/67/5 78/61/5
f 77/67/13 79/73/13 81/69/13 83/72/13 87/72/13 85/67/13
f 78/61/6 77/67/6 85/67/6 86/61/6
f 72/62/10 70/61/10 78/61/10 80/62/10
f 75/72/5 76/64/5 84/64/5 83/72/5
f 73/73/10 71/73/10 79/73/10 81/73/10
f 73/69/10 75/72/10 83/72/10 81/69/10
f 69/67/10 71/68/10 79/68/10 77/67/10
f 87/72/14 85/67/14 86/61/14 88/64/14
f 80/73/15 78/61/15 86/61/15 88/64/15 84/64/15 82/73/15
f 83/72/7 84/64/7 88/64/7 87/72/7
