# Blender 4.5.3 LTS
# www.blender.org
mtllib Mouse01.mtl
o Mouse
v 1.232877 3.545065 0.450724
v 1.232877 3.620087 0.450724
v 1.272228 3.551785 -0.004632
v 1.272228 3.595421 -0.004632
v 1.567123 3.545065 0.450724
v 1.567123 3.620087 0.450724
v 1.527772 3.551785 -0.004632
v 1.527772 3.595421 -0.004632
v 1.232877 3.620087 0.359653
v 1.232877 3.620087 0.268582
v 1.232877 3.620087 0.177511
v 1.241365 3.620087 0.086439
v 1.299726 3.602140 -0.004632
v 1.366575 3.602140 -0.004632
v 1.433425 3.602140 -0.004632
v 1.500274 3.602140 -0.004632
v 1.558635 3.620087 0.086439
v 1.567123 3.620087 0.177511
v 1.567123 3.620087 0.268582
v 1.567123 3.620087 0.359653
v 1.500274 3.673308 0.450724
v 1.433425 3.673308 0.450724
v 1.366575 3.673308 0.450724
v 1.299726 3.673308 0.450724
v 1.503889 3.655823 0.020571
v 1.528942 3.654935 0.189755
v 1.500274 3.673308 0.268582
v 1.500274 3.673308 0.359653
v 1.404756 3.654935 0.020571
v 1.404756 3.654935 0.189755
v 1.433425 3.673308 0.268582
v 1.433425 3.673308 0.359653
v 1.395244 3.654935 0.020571
v 1.395244 3.654935 0.189755
v 1.366575 3.673308 0.268582
v 1.366575 3.673308 0.359653
v 1.296111 3.655823 0.020571
v 1.271057 3.654935 0.189755
v 1.299726 3.673308 0.268582
v 1.299726 3.673308 0.359653
v 1.503889 3.663190 0.020571
v 1.528942 3.686844 0.189755
v 1.404756 3.664079 0.020571
v 1.404756 3.686844 0.189755
v 1.395244 3.664079 0.020571
v 1.395244 3.686844 0.189755
v 1.296111 3.663190 0.020571
v 1.271057 3.686844 0.189755
vn -0.9772 -0.1983 -0.0757
vn -0.0000 -0.0000 -1.0000
vn 0.9772 -0.1983 -0.0757
vn -0.0000 -0.0000 1.0000
vn -0.0000 -0.9999 -0.0148
vn -0.6229 0.7823 -0.0000
vn 0.6229 0.7823 -0.0000
vn -0.0000 1.0000 -0.0000
vn 0.6844 0.4943 -0.5360
vn 0.6314 0.7714 -0.0787
vn 0.6441 0.7645 0.0260
vn -0.0023 0.4274 -0.9040
vn -0.0000 0.9739 -0.2270
vn -0.0000 0.4308 -0.9024
vn 0.0023 0.4274 -0.9040
vn -1.0000 -0.0000 -0.0000
vn -0.6844 0.4943 -0.5360
vn -0.6314 0.7714 -0.0787
vn -0.6441 0.7645 0.0260
vn 0.0039 0.9907 -0.1362
vn -0.0039 0.9907 -0.1362
vn 1.0000 -0.0000 -0.0000
vn -0.9892 -0.0000 -0.1465
vn 0.9892 -0.0000 -0.1465
vt 0.375000 0.000000
vt 0.625000 0.000000
vt 0.625000 0.050000
vt 0.625000 0.100000
vt 0.625000 0.150000
vt 0.625000 0.200000
vt 0.625000 0.250000
vt 0.375000 0.250000
vt 0.625000 0.300000
vt 0.625000 0.350000
vt 0.625000 0.400000
vt 0.625000 0.450000
vt 0.625000 0.500000
vt 0.375000 0.500000
vt 0.625000 0.550000
vt 0.625000 0.600000
vt 0.625000 0.650000
vt 0.625000 0.700000
vt 0.625000 0.750000
vt 0.375000 0.750000
vt 0.625000 0.800000
vt 0.625000 0.850000
vt 0.625000 0.900000
vt 0.625000 0.950000
vt 0.625000 1.000000
vt 0.375000 1.000000
vt 0.125000 0.500000
vt 0.125000 0.750000
vt 0.825000 0.700000
vt 0.875000 0.700000
vt 0.875000 0.750000
vt 0.825000 0.750000
vt 0.675000 0.700000
vt 0.675000 0.750000
vt 0.725000 0.700000
vt 0.725000 0.750000
vt 0.775000 0.700000
vt 0.775000 0.750000
vt 0.675000 0.500000
vt 0.675000 0.550000
vt 0.675000 0.600000
vt 0.675000 0.650000
vt 0.725000 0.500000
vt 0.725000 0.550000
vt 0.725000 0.600000
vt 0.725000 0.650000
vt 0.775000 0.500000
vt 0.775000 0.550000
vt 0.775000 0.600000
vt 0.775000 0.650000
vt 0.825000 0.500000
vt 0.825000 0.550000
vt 0.825000 0.600000
vt 0.825000 0.650000
vt 0.875000 0.500000
vt 0.875000 0.550000
vt 0.875000 0.600000
vt 0.875000 0.650000
s 0
f 1/1/1 2/2/1 9/3/1 10/4/1 11/5/1 12/6/1 4/7/1 3/8/1
f 3/8/2 4/7/2 13/9/2 14/10/2 15/11/2 16/12/2 8/13/2 7/14/2
f 7/14/3 8/13/3 17/15/3 18/16/3 19/17/3 20/18/3 6/19/3 5/20/3
f 5/20/4 6/19/4 21/21/4 22/22/4 23/23/4 24/24/4 2/25/4 1/26/4
f 3/27/5 7/14/5 5/20/5 1/28/5
f 40/29/6 9/30/6 2/31/6 24/32/6
f 20/18/7 28/33/7 21/34/7 6/19/7
f 28/33/8 32/35/8 22/36/8 21/34/8
f 32/35/8 36/37/8 23/38/8 22/36/8
f 36/37/8 40/29/8 24/32/8 23/38/8
f 8/13/9 16/39/9 25/40/9 17/15/9
f 17/15/10 25/40/10 26/41/10 18/16/10
f 18/16/11 26/41/11 27/42/11 19/17/11
f 19/17/7 27/42/7 28/33/7 20/18/7
f 16/39/12 15/43/12 29/44/12 25/40/12
f 30/45/4 26/41/4 42/41/4 44/45/4
f 26/41/13 30/45/13 31/46/13 27/42/13
f 27/42/8 31/46/8 32/35/8 28/33/8
f 15/43/14 14/47/14 33/48/14 29/44/14
f 29/44/8 33/48/8 34/49/8 30/45/8
f 30/45/13 34/49/13 35/50/13 31/46/13
f 31/46/8 35/50/8 36/37/8 32/35/8
f 14/47/15 13/51/15 37/52/15 33/48/15
f 29/44/16 30/45/16 44/45/16 43/44/16
f 34/49/13 38/53/13 39/54/13 35/50/13
f 35/50/8 39/54/8 40/29/8 36/37/8
f 13/51/17 4/55/17 12/56/17 37/52/17
f 37/52/18 12/56/18 11/57/18 38/53/18
f 38/53/19 11/57/19 10/58/19 39/54/19
f 39/54/6 10/58/6 9/30/6 40/29/6
f 41/40/20 43/44/20 44/45/20 42/41/20
f 45/48/21 47/52/21 48/53/21 46/49/21
f 34/49/22 33/48/22 45/48/22 46/49/22
f 33/48/2 37/52/2 47/52/2 45/48/2
f 37/52/23 38/53/23 48/53/23 47/52/23
f 25/40/2 29/44/2 43/44/2 41/40/2
f 26/41/24 25/40/24 41/40/24 42/41/24
f 38/53/4 34/49/4 46/49/4 48/53/4
