# Blender 4.5.3 LTS
# www.blender.org
mtllib Table01.mtl
o TABLE
v -4.000000 3.300000 1.000000
v -4.114578 3.300000 -3.134421
v -4.000000 3.300000 -3.000000
v 4.000000 3.300000 1.000000
v -4.114578 3.300000 1.132641
v 4.000000 3.300000 -3.000000
v -3.600000 3.300000 -3.000000
v -3.600000 3.300000 1.000000
v -3.703130 3.300000 -3.134421
v 3.620000 3.300000 1.000000
v 3.620000 3.300000 -3.000000
v -4.000000 3.300000 0.700000
v 4.114387 3.300000 -3.134421
v 4.000000 3.300000 0.700000
v 4.114387 3.300000 1.132641
v -3.600000 3.300000 0.700000
v 3.620000 3.300000 0.700000
v 4.000000 3.300000 -2.660000
v -4.000000 3.300000 -2.660000
v -3.600000 3.300000 -2.660000
v 3.620000 3.300000 -2.660000
v -3.940000 0.000000 0.745000
v -3.940000 0.000000 0.955000
v -3.660000 0.000000 -2.949000
v -3.940000 0.000000 -2.949000
v 3.943000 0.000000 -2.711000
v 3.943000 0.000000 -2.949000
v 3.677000 0.000000 0.955000
v 3.943000 0.000000 0.955000
v -3.660000 0.000000 0.955000
v -3.660000 0.000000 0.745000
v 3.677000 0.000000 -2.949000
v 3.677000 0.000000 0.745000
v 3.943000 0.000000 0.745000
v -3.940000 0.000000 -2.711000
v -3.660000 0.000000 -2.711000
v 3.677000 0.000000 -2.711000
v -3.703130 3.300000 1.132641
v 3.723511 3.300000 1.132641
v 3.723511 3.300000 -3.134421
v -4.114578 3.300000 0.792582
v 4.114387 3.300000 0.792582
v 4.114387 3.300000 -2.749021
v -4.114578 3.300000 -2.749021
v -4.114578 3.531402 -3.134421
v -4.114578 3.531402 1.132641
v 4.114387 3.531402 -3.134421
v 4.114387 3.531402 1.132641
vn -0.0000 -0.0155 0.9999
vn -0.0000 -0.0136 -0.9999
vn -0.0000 -1.0000 -0.0000
vn -0.0000 -0.0155 -0.9999
vn -0.9999 -0.0173 -0.0000
vn 0.9998 -0.0182 -0.0000
vn -0.0000 -0.0136 0.9999
vn 0.9999 -0.0173 -0.0000
vn -0.9998 -0.0182 -0.0000
vn -0.0000 -0.0000 1.0000
vn -0.0000 -0.0000 -1.0000
vn -1.0000 -0.0000 -0.0000
vn 1.0000 -0.0000 -0.0000
vn -0.0000 1.0000 -0.0000
vt 0.137500 0.542500
vt 0.125000 0.542500
vt 0.363125 0.712500
vt 0.375000 0.712500
vt 0.375000 0.250000
vt 0.375000 0.207500
vt 0.375000 0.750000
vt 0.363125 0.500000
vt 0.137500 0.500000
vt 0.363125 0.542500
vt 0.375000 0.542500
vt 0.363125 0.750000
vt 0.137500 0.750000
vt 0.137500 0.712500
vt 0.125000 0.712500
vt 0.375000 0.262500
vt 0.375000 0.037500
vt 0.375000 0.000000
vt 0.125000 0.750000
vt 0.375000 0.500000
vt 0.125000 0.500000
vt 0.375000 0.987500
vt 0.375000 1.000000
vt 0.375000 0.488125
vt 0.375000 0.761875
vt 0.000000 0.000000
s 0
f 20/1/1 19/2/1 35/2/1 36/1/1
f 17/3/2 14/4/2 34/4/2 33/3/2
f 3/5/3 19/6/3 44/6/3 2/5/3
f 4/7/3 14/4/3 42/4/3 15/7/3
f 11/8/3 7/9/3 9/9/3 40/8/3
f 7/9/3 11/8/3 21/10/3 18/11/3 14/4/3 17/3/3 10/12/3 8/13/3 16/14/3 12/15/3 19/2/3 20/1/3
f 3/5/4 7/16/4 24/16/4 25/5/4
f 10/12/5 17/3/5 33/3/5 28/12/5
f 12/17/3 1/18/3 5/18/3 41/17/3
f 33/3/3 34/4/3 29/7/3 28/12/3
f 22/15/3 31/14/3 30/13/3 23/19/3
f 32/8/3 27/20/3 26/11/3 37/10/3
f 25/21/3 24/9/3 36/1/3 35/2/3
f 7/9/6 20/1/6 36/1/6 24/9/6
f 21/10/5 11/8/5 32/8/5 37/10/5
f 8/22/7 1/23/7 23/23/7 30/22/7
f 6/20/8 18/11/8 26/11/8 27/20/8
f 11/24/4 6/20/4 27/20/4 32/24/4
f 1/18/9 12/17/9 22/17/9 23/18/9
f 14/4/8 4/7/8 29/7/8 34/4/8
f 12/15/2 16/14/2 31/14/2 22/15/2
f 18/11/1 21/10/1 37/10/1 26/11/1
f 19/6/9 3/5/9 25/5/9 35/6/9
f 16/14/6 8/13/6 30/13/6 31/14/6
f 4/7/7 10/25/7 28/25/7 29/7/7
f 14/4/3 18/11/3 43/11/3 42/4/3
f 18/11/3 6/20/3 13/20/3 43/11/3
f 7/16/3 3/5/3 2/5/3 9/16/3
f 10/25/3 4/7/3 15/7/3 39/25/3
f 19/2/3 12/15/3 41/15/3 44/2/3
f 1/23/3 8/22/3 38/22/3 5/23/3
f 8/13/3 10/12/3 39/12/3 38/13/3
f 6/20/3 11/24/3 40/24/3 13/20/3
f 5/23/10 38/13/10 39/25/10 15/7/10 48/7/10 46/23/10
f 40/8/11 9/16/11 2/5/11 45/5/11 47/20/11 13/20/11
f 44/2/12 41/17/12 5/18/12 46/18/12 45/5/12 2/5/12
f 42/4/13 43/11/13 13/20/13 47/20/13 48/7/13 15/7/13
f 47/26/14 45/26/14 46/26/14 48/26/14
